<svg height="1079" viewBox="0 0 6395 1079" width="6395" xmlns="http://www.w3.org/2000/svg" xmlns:xlink="http://www.w3.org/1999/xlink"><clipPath id="a"><path d="m-5391 0h6395v1079h-6395z"/></clipPath><linearGradient id="b" gradientUnits="objectBoundingBox" x1=".747" x2=".973" y1=".222" y2=".807"><stop offset="0" stop-color="#2c41b4"/><stop offset="1" stop-color="#1b4fab"/></linearGradient><g clip-path="url(#a)" transform="translate(5391)"><path d="m6271.734-6.176s-222.478 187.809-55.349 583.254c44.957 106.375 81.514 205.964 84.521 277 8.164 192.764-156.046 268.564-156.046 268.564l-653.53-26.8-16.265-1117.467z" fill="#f1f5f8" transform="translate(-5295.716 -1.126)"/><path d="m-2631.1 1081.8v-1.6h-5599.8v-1080.178h5599.8v-.022h759.7s-187.845 197.448-91.626 488.844c49.167 148.9 96.309 256.289 104.683 362.118 7.979 100.852-57.98 201.711-168.644 254.286-65.858 31.29-144.552 42.382-223.028 42.383-191.185.001-381.085-65.831-381.085-65.831z" fill="url(#b)" transform="translate(2840.191 -.323)"/></g></svg>